<svg width="50" height="50" viewBox="0 0 50 50" fill="none" xmlns="http://www.w3.org/2000/svg">
<path d="M15.349 8.73047C16.6351 8.73047 17.6776 7.68789 17.6776 6.40186C17.6776 5.11573 16.6351 4.07325 15.349 4.07325C15.2232 4.07325 15.0999 4.0835 14.9796 4.10264C14.9978 3.96504 15.0081 3.825 15.0081 3.68242C15.0081 1.92481 13.5832 0.5 11.8256 0.5C10.068 0.5 8.64316 1.92481 8.64316 3.68242C8.64316 3.825 8.65341 3.96504 8.67167 4.10264C8.55126 4.0835 8.42792 4.07325 8.30224 4.07325C7.01611 4.07325 5.97363 5.11573 5.97363 6.40186C5.97363 7.68789 7.01611 8.73047 8.30224 8.73047H15.349Z" stroke="black" stroke-miterlimit="10" stroke-linecap="round" stroke-linejoin="round"/>
<path d="M49.0352 47.6972L36.3389 30.2852" stroke="black" stroke-miterlimit="10" stroke-linecap="round" stroke-linejoin="round"/>
<path d="M38.704 41.5764L32.8232 30.2852" stroke="black" stroke-miterlimit="10" stroke-linecap="round" stroke-linejoin="round"/>
<path d="M42.5885 49.0352L40.376 44.7871" stroke="black" stroke-miterlimit="10" stroke-linecap="round" stroke-linejoin="round"/>
<path d="M35.3623 49.0352L29.5029 30.2852" stroke="black" stroke-miterlimit="10" stroke-linecap="round" stroke-linejoin="round"/>
<path d="M28.1357 49.0352L26.1826 30.2852" stroke="black" stroke-miterlimit="10" stroke-linecap="round" stroke-linejoin="round"/>
<path d="M20.8115 49.0352L22.7646 30.2852" stroke="black" stroke-miterlimit="10" stroke-linecap="round" stroke-linejoin="round"/>
<path d="M13.585 49.0352L19.4444 30.2852" stroke="black" stroke-miterlimit="10" stroke-linecap="round" stroke-linejoin="round"/>
<path d="M6.3584 49.0352L16.124 30.2852" stroke="black" stroke-miterlimit="10" stroke-linecap="round" stroke-linejoin="round"/>
<path d="M0.5 47.0249L12.7061 30.2852" stroke="black" stroke-miterlimit="10" stroke-linecap="round" stroke-linejoin="round"/>
<path d="M0.5 39.0342L8.70215 30.2852" stroke="black" stroke-miterlimit="10" stroke-linecap="round" stroke-linejoin="round"/>
<path d="M0.5 33.3328L4.30957 30.2852" stroke="black" stroke-miterlimit="10" stroke-linecap="round" stroke-linejoin="round"/>
<path d="M49.0352 30.2363H0.5" stroke="black" stroke-miterlimit="10" stroke-linecap="round" stroke-linejoin="round"/>
<path d="M49.0352 33.3328L45.2256 30.2852" stroke="black" stroke-miterlimit="10" stroke-linecap="round" stroke-linejoin="round"/>
<path d="M49.0352 39.557L40.3428 30.2852" stroke="black" stroke-miterlimit="10" stroke-linecap="round" stroke-linejoin="round"/>
<path d="M40.8783 17.5979C42.1644 17.5979 43.2069 16.5553 43.2069 15.2692C43.2069 13.9831 42.1644 12.9406 40.8783 12.9406C40.7525 12.9406 40.6293 12.9509 40.5089 12.97C40.5271 12.8324 40.5374 12.6924 40.5374 12.5498C40.5374 10.7922 39.1125 9.36731 37.3549 9.36731C35.5973 9.36731 34.1725 10.7922 34.1725 12.5498C34.1725 12.6924 34.1828 12.8324 34.201 12.97C34.0807 12.9509 33.9573 12.9406 33.8316 12.9406C32.5455 12.9406 31.5029 13.9831 31.5029 15.2692C31.5029 16.5553 32.5455 17.5979 33.8316 17.5979H40.8783Z" stroke="black" stroke-miterlimit="10" stroke-linecap="round" stroke-linejoin="round"/>
<path d="M31.5576 13.9906C29.2616 13.9906 27.4004 12.1294 27.4004 9.8334C27.4004 7.53739 29.2616 5.67615 31.5576 5.67615C32.8321 5.67615 33.9726 6.24959 34.7352 7.15262" stroke="black" stroke-miterlimit="10" stroke-linecap="round" stroke-linejoin="round"/>
<path d="M20.8115 30.2851C20.8115 30.2851 32.8232 18.6256 49.0351 24.7675" stroke="black" stroke-miterlimit="10" stroke-linecap="round" stroke-linejoin="round"/>
<path d="M5.01397 19.8988C3.53145 20.3879 2.02315 21.0288 0.5 21.8482" stroke="black" stroke-miterlimit="10" stroke-linecap="round" stroke-linejoin="round"/>
<path d="M30.9822 24.4073C30.9822 24.4073 21.2723 16.8627 8.90918 18.9344" stroke="black" stroke-miterlimit="10" stroke-linecap="round" stroke-linejoin="round"/>
</svg>
