<svg width="452" height="84" viewBox="0 0 452 84" fill="none" xmlns="http://www.w3.org/2000/svg">
<g clip-path="url(#clip0_49_1879)">
<path fill-rule="evenodd" clip-rule="evenodd" d="M254.812 0.67041H257.69V73.6733H254.812V0.67041Z" fill="#231F20"/>
<path fill-rule="evenodd" clip-rule="evenodd" d="M145.6 52.6427C144.561 53.186 143.559 53.8064 142.458 54.2534C139.827 55.313 137.163 56.311 134.482 57.2936C133.133 57.7906 132.907 57.6249 133.028 56.2609C133.644 49.7259 134.281 43.1947 134.876 36.6404C135.248 32.6407 135.734 28.6334 135.847 24.6222C135.902 23.0616 135.299 21.4048 134.637 19.9328C133.958 18.3993 132.102 18.0293 130.573 18.9194C128.424 20.1717 127.117 21.9134 127.117 24.3602C127.117 32.8642 127.029 41.3644 127.117 49.8646C127.143 51.9145 126.435 53.2593 124.533 54.2264C122.937 55.0163 121.42 55.9488 119.874 56.7965C119.531 56.9853 119.141 57.0778 118.576 57.282C118.5 56.4651 118.396 55.8062 118.379 55.155C118.337 45.6954 118.337 36.2512 118.224 26.7915C118.211 24.8842 118.082 22.9037 117.529 21.0772C116.942 19.1699 115.233 18.958 113.587 20.2719C112.141 21.4471 111.626 22.9383 111.626 24.6492C111.618 33.7967 111.584 42.9442 111.605 52.1033C111.605 53.0512 111.295 53.6484 110.39 54.1031C108.375 55.1242 106.386 56.1915 104.375 57.2127C104.04 57.3976 103.625 57.4361 103.022 57.6172V55.9912C102.993 45.6569 102.967 35.338 102.93 25.0114C102.917 24.1791 102.804 23.3545 102.645 22.5337C102.285 20.638 101.091 19.5282 98.9543 19.2431C98.1626 19.1391 96.8933 19.2123 96.8975 18.2066C96.9184 17.6748 97.8861 17.0237 98.5731 16.6692C100.932 15.4361 103.365 14.3148 105.782 13.1666C107.19 12.5038 108.074 12.6811 108.954 13.8794C109.917 15.1934 110.788 16.5574 111.823 18.0756C112.431 17.5978 113.021 17.1585 113.578 16.6807C114.923 15.5132 116.196 14.2493 117.617 13.155C119.849 11.4018 121.659 11.5521 123.599 13.5789C124.558 14.5769 125.425 15.6326 126.313 16.673C127.461 18.0062 127.461 18.0332 128.831 16.9582C130.494 15.6481 132.098 14.2802 133.77 12.9932C135.906 11.3479 137.829 11.3132 140.02 12.947C143.907 15.8638 145.65 19.667 145.193 24.2831C144.64 29.9859 144.071 35.6886 143.513 41.3952C143.237 44.2273 142.981 47.0633 142.667 49.8954C142.567 50.8202 142.768 51.4059 143.861 51.6216C144.443 51.7372 144.954 52.0609 145.512 52.2805C145.528 52.4038 145.566 52.5233 145.6 52.6504V52.6427Z" fill="#E91F3E"/>
<path fill-rule="evenodd" clip-rule="evenodd" d="M15.4746 41.9115V49.9686C15.4746 50.9935 15.5374 52.0223 15.4117 53.0396C15.3489 53.4673 14.9761 54.0761 14.5655 54.2225C11.8301 55.2321 9.05272 56.1607 6.0743 57.1818C6.01565 56.5961 5.95282 56.1992 5.95282 55.81C5.87741 44.5433 5.83133 33.2611 5.77269 21.9904C5.75593 21.3546 5.66377 20.7112 5.58418 20.0715C5.44175 18.8346 4.69191 18.1757 3.34722 18.0447C2.29157 17.9368 1.25687 17.7365 0.213797 17.5708C0.135601 17.4578 0.0588016 17.3473 -0.0166016 17.2394C0.73743 16.6113 1.41187 15.8715 2.25387 15.359C4.09706 14.2378 6.0366 13.2167 7.93424 12.1455C10.5273 10.6851 12.4626 11.1167 14.0545 13.5365C14.5907 14.3495 15.0557 15.1895 15.6463 16.1567C16.8318 15.4207 17.921 14.7271 19.0227 14.0258C20.1202 13.3438 21.1843 12.6464 22.3027 11.9952C24.3093 10.8123 25.6037 10.951 27.4427 12.369C29.4158 13.9256 30.6599 15.9178 31.6737 18.0486C33.4163 21.713 34.3044 25.5354 33.9148 29.5504C33.7598 31.1495 33.0644 32.4789 31.6737 33.4537C30.2159 34.4401 28.712 35.3842 27.25 36.3706C25.0843 37.831 25.0633 38.1546 26.1022 40.4242C28.1255 44.7552 31.1668 48.4851 34.095 52.2882C35.5611 54.1763 35.5988 54.2225 33.4959 55.6097C32.4612 56.2956 31.3427 56.9352 30.1656 57.3398C28.5319 57.8908 26.9484 57.2781 25.8802 56.2069C24.0789 54.4075 22.3279 52.5079 20.9329 50.4425C19.2531 47.9803 17.9335 45.3023 16.4464 42.7168C16.2705 42.4009 16.0485 42.0965 15.839 41.7921C15.7189 41.8332 15.5974 41.873 15.4746 41.9115ZM15.3447 28.013C15.4955 30.3172 15.6128 32.3633 15.8013 34.4093C15.839 34.7407 16.1867 35.2917 16.438 35.3264C17.9377 35.5075 19.4793 35.7194 20.9706 35.6231C22.952 35.5075 24.1878 34.34 24.2716 32.5482C24.3931 30.0051 24.4601 27.4504 24.2716 24.9304C24.0789 22.6069 22.9143 20.5647 21.2471 18.8192C20.0574 17.5708 18.9305 17.5823 17.8791 18.9425C17.0664 20.006 16.2076 21.1774 15.9144 22.4104C15.4746 24.3101 15.4997 26.3099 15.3489 28.0168L15.3447 28.013Z" fill="#E91F3E"/>
<path fill-rule="evenodd" clip-rule="evenodd" d="M212.729 42.32C212.917 38.2163 213.621 33.5231 215.98 29.1535C217.178 26.9379 219.08 25.3735 221.35 24.1097C222.938 23.2389 224.475 22.291 226.021 21.3585C226.938 20.8075 227.085 20.1871 226.172 19.4743C223.382 17.2933 220.55 15.1548 217.831 12.9007C215.322 10.8315 212.922 8.6506 210.504 6.47739C210.119 6.15372 209.797 5.72986 209.587 5.27904C209.478 5.0517 209.587 4.5084 209.784 4.41977C212.814 2.99151 215.864 1.59665 218.933 0.235184C219.272 0.0926155 219.959 0.127294 220.148 0.335368C220.353 0.56656 220.282 1.16381 220.102 1.47206C219.331 2.75133 219.628 3.71463 220.856 4.60087C223.08 6.21537 225.225 7.92619 227.504 9.49445C230.666 11.6908 233.745 13.968 236.079 16.9735C237.784 19.1622 238.609 21.6051 238.588 24.3178C238.513 32.2939 238.504 40.2585 238.458 48.2423C238.437 51.2286 236.85 53.2554 233.452 54.4499C230.687 55.417 227.91 56.4111 225.066 57.1317C220.085 58.3955 217.408 57.2897 215.062 53.0242C213.328 49.8992 212.75 46.493 212.733 42.32H212.729ZM229.33 37.5574C229.33 33.7196 229.355 29.8933 229.313 26.0556C229.305 24.9767 228.794 24.5759 227.763 25.0845C226.725 25.5739 225.589 26.3792 225.145 27.3078C224.328 28.9609 223.93 30.8066 223.474 32.5944C222.28 37.2838 221.819 42.031 222.28 46.8244C222.443 48.5352 222.632 50.3038 224.002 51.7064C224.777 52.504 225.681 52.9433 226.842 52.6581C228.032 52.3499 228.907 51.6524 229.15 50.508C229.347 49.6218 229.447 48.7047 229.447 47.7992C229.485 44.3853 229.464 40.9752 229.464 37.5574H229.33Z" fill="#E91F3E"/>
<path fill-rule="evenodd" clip-rule="evenodd" d="M84.2759 43.7571C84.7115 42.1079 85.1723 40.478 85.5745 38.8173C86.7726 33.8235 87.9455 28.8375 89.1268 23.836C89.8054 20.9923 90.5092 18.1525 91.1836 15.3204C91.6151 13.4747 94.6731 11.5712 96.7258 11.9758C96.9604 12.0143 97.2578 12.5885 97.195 12.8543C96.7844 14.7116 96.3111 16.5457 95.7874 18.3798C94.4679 23.154 93.1399 27.9127 91.7659 32.6637C90.4087 37.38 88.9928 42.0848 87.6439 46.7934C86.4961 50.8162 85.4781 54.889 84.2591 58.8925C83.2537 62.2602 82.3908 65.7319 80.8576 68.9147C78.0174 74.8448 70.6866 75.3419 66.6232 72.5791C63.8374 70.6949 62.5514 67.963 62.2875 64.8688C62.2414 64.2831 62.8069 63.4701 63.3599 63.0809C65.4335 61.6514 67.8254 60.8615 70.3724 60.3952C71.3694 60.2064 71.671 60.7767 71.9642 61.4472C72.4083 62.5376 72.8523 63.6435 73.3759 64.7031C73.8535 65.6549 74.4944 66.5026 75.8391 66.5026C77.1838 66.5026 78.4028 65.9169 78.7966 64.7879C79.5506 62.6879 80.0198 60.507 80.5099 58.3261C80.5686 58.0525 80.0701 57.6749 79.8439 57.3358C79.2155 56.4573 78.4028 55.6558 78.0216 54.7041C75.1605 47.5371 72.3664 40.3431 69.5723 33.1453C68.0223 29.1611 66.4682 25.1615 64.9936 21.1541C64.713 20.3835 64.2396 20.1369 63.4897 20.056C62.4341 19.9519 61.3491 19.9134 60.3019 19.7169C59.883 19.6398 59.2797 19.2314 59.2378 18.9193C59.1792 18.4685 59.4012 17.694 59.7824 17.5206C63.3808 15.7751 67.0379 14.1143 70.6866 12.4613C71.2982 12.1839 71.7464 12.3496 72.0061 13.02C73.5603 17.0852 75.1689 21.1426 76.7188 25.2077C78.9348 31.0107 81.1215 36.8329 83.3124 42.6435C83.4758 43.0558 83.7104 43.4334 83.9114 43.8303C84.0329 43.8033 84.146 43.7841 84.2759 43.7571Z" fill="#E91F3E"/>
<path fill-rule="evenodd" clip-rule="evenodd" d="M182.396 57.8099C182.316 57.1163 182.19 56.5576 182.19 56.0104C182.132 47.2444 182.094 38.4745 182.031 29.7123C182.02 27.4723 181.977 25.2335 181.901 22.9961C181.889 22.3603 181.771 21.7091 181.587 21.0965C181.265 19.9675 180.523 19.2469 179.174 19.1313C178.032 19.0286 176.894 18.8822 175.76 18.6921C174.742 18.5225 174.801 17.9946 175.408 17.4244C175.806 17.0622 176.263 16.7038 176.766 16.4765C179.38 15.3398 181.985 14.2223 184.62 13.1512C186.593 12.3458 187.665 12.6888 188.675 14.4458C189.366 15.6519 189.944 16.9157 190.535 18.1719C190.862 18.8693 191.189 18.9464 191.779 18.3723C193.756 16.4456 195.75 14.5229 197.77 12.6387C199.642 10.8739 201.334 10.7545 203.45 12.2225C207.497 15.0045 209.336 18.6535 208.879 23.3622C208.087 31.6042 207.509 39.8501 206.68 48.0728C206.487 49.9763 207.484 50.8317 209.021 51.5022C208.192 53.0396 199.642 57.4554 197.757 57.3552C197.732 57.0739 197.661 56.7657 197.686 56.4805C198.253 49.7888 198.811 43.0957 199.361 36.4014C199.738 32.0126 200.128 27.6354 200.421 23.2427C200.48 22.3218 200.254 21.3546 199.96 20.4568C199.29 18.3568 197.137 17.6748 195.21 18.9695C192.361 20.8807 190.656 23.3313 190.677 26.7337C190.74 35.2724 190.677 43.8112 190.631 52.3537C190.631 52.8123 190.409 53.4673 190.028 53.7139C188.089 54.9623 186.053 56.1376 184.038 57.2935C183.602 57.5363 183.053 57.6172 182.391 57.8099H182.396Z" fill="#E91F3E"/>
<path fill-rule="evenodd" clip-rule="evenodd" d="M56.7238 53.3208C55.9865 54.1492 55.2869 54.8274 54.7005 55.6057C53.3181 57.4206 51.3953 57.8098 49.1625 57.6132C43.4151 57.1162 39.3853 54.2571 36.6205 49.7874C34.7773 46.7819 34.0987 43.5644 35.1836 40.1543C35.8204 38.143 37.3284 36.7173 39.1423 35.6576C42.1626 33.889 45.3002 32.2976 48.4001 30.6639C50.7041 29.4347 50.7711 29.4501 50.2768 27.1189C49.8663 25.1846 49.3301 23.2734 48.7269 21.3969C48.6263 21.0848 47.9184 20.7765 47.4953 20.7688C44.7682 20.6687 42.0537 20.6802 39.3266 20.6147C38.1872 20.5916 37.0603 20.4876 35.5858 20.3835C36.5241 19.1351 37.2195 18.1178 38.0029 17.1661C39.2596 15.6287 40.5498 14.0951 41.9155 12.6309C42.2631 12.2609 42.9502 11.9874 43.4905 11.9835C47.1979 11.9257 50.9094 11.9835 54.6209 11.9565C55.4503 11.9565 55.9363 12.1646 56.1122 12.9622C56.9793 16.6305 57.8884 20.2756 58.7848 23.9362C59.8488 28.2569 60.9059 32.5764 61.9559 36.8945C62.7854 40.3316 63.6735 43.7687 64.4065 47.2134C64.8799 49.3982 65.923 51.3017 67.4101 53.0048C68.0217 53.7176 68.0426 54.1299 67.1336 54.5846C65.4077 55.4477 63.6735 56.3301 61.9895 57.2703C61.0427 57.8021 60.4186 57.6132 59.786 56.8465C58.8183 55.6789 57.7878 54.5577 56.7154 53.3323L56.7238 53.3208ZM51.5754 33.9699C49.4181 34.9756 47.5497 35.7 45.8532 36.6749C43.7922 37.8617 43.2518 39.796 43.5073 41.9345C44.0351 46.4197 47.0052 49.4907 50.6203 52.1571C50.9973 52.4345 52.0907 52.4731 52.3462 52.211C54.0344 50.5465 55.4126 48.7085 54.8303 46.2193C54.1601 43.3718 53.5694 40.5127 52.8573 37.669C52.5724 36.5169 52.0823 35.3995 51.5754 33.9699Z" fill="#E91F3E"/>
<path fill-rule="evenodd" clip-rule="evenodd" d="M175.53 33.3034C175.493 39.0138 175.137 43.6069 173.687 48.0882C173.067 50.0071 171.819 51.6177 169.992 52.6272C166.821 54.3612 163.575 56.0258 160.215 57.3975C157.501 58.4995 154.162 57.2896 152.419 54.9122C150.17 51.845 148.959 48.4696 148.586 44.7513C148.155 40.3394 148.176 35.9544 148.674 31.5694C149.261 26.7452 150.337 22.0212 154.061 18.2951C156.675 15.6749 159.909 13.706 163.558 12.5307C166.176 11.6715 168.459 12.6733 170.378 14.4188C172.77 16.5727 174.131 19.2623 174.517 22.2408C175.053 26.2636 175.266 30.3172 175.522 33.3034H175.53ZM166.997 35.1067C167.11 35.0913 167.202 35.0759 167.303 35.072C166.876 31.4538 166.557 27.8318 165.979 24.2522C165.715 22.5953 165.058 20.9461 164.32 19.401C163.948 18.6188 163.022 18.0408 162.347 17.3781C161.572 18.1217 160.508 18.7614 160.068 19.6438C158.322 23.1348 157.915 26.9071 157.635 30.7025C157.203 36.7058 157.442 42.6705 159.101 48.5159C159.57 50.1496 159.997 51.8412 161.803 52.8006C162.427 53.1359 162.921 53.1551 163.252 52.5348C164.061 50.9858 165.095 49.4715 165.581 47.8377C166.771 43.6724 167.073 39.3992 166.993 35.1028L166.997 35.1067Z" fill="#E91F3E"/>
<path fill-rule="evenodd" clip-rule="evenodd" d="M297.088 50.8357V51.4406H292.463L285.648 42.7478H279.611V51.4406H275.024V26.4834H286.347C292.304 26.4834 295.869 30.1555 295.869 34.6098C295.869 38.07 293.599 40.9561 290.109 42.0966L297.088 50.8357ZM286.31 39.3223C289.292 39.3223 291.45 37.3572 291.45 34.6484C291.45 31.9395 289.33 30.0823 286.31 30.0823H279.536V39.3184C279.536 39.3184 286.31 39.3184 286.31 39.3223Z" fill="#010101"/>
<path fill-rule="evenodd" clip-rule="evenodd" d="M326.282 30.1169H314.171V36.7175H325.611V40.3819H314.171V47.6606H326.516V51.4367H309.584V26.4795H326.282V30.1169Z" fill="#010101"/>
<path fill-rule="evenodd" clip-rule="evenodd" d="M344.106 46.273L341.442 51.4402H336.662V50.9007L349.359 26.3057H351.47L364.092 50.9007V51.4402H359.346L356.644 46.273H344.106ZM345.597 42.7743H355.199L350.423 32.7945L345.597 42.7743Z" fill="#010101"/>
<path fill-rule="evenodd" clip-rule="evenodd" d="M380.003 47.6953H391.799V51.4367H375.42V26.4795H380.003V47.6953Z" fill="#010101"/>
<path fill-rule="evenodd" clip-rule="evenodd" d="M398.384 30.1516V26.4795H418.764V30.1516H410.8V51.4367H406.339V30.1516H398.384Z" fill="#010101"/>
<path fill-rule="evenodd" clip-rule="evenodd" d="M439.759 37.7848L443.169 31.8663L446.738 26.4795H451.598V27.0883L441.954 41.3144V51.4367H437.413V41.3144L427.732 27.0883V26.4795H432.629L436.316 32.0474L439.604 37.7848H439.759Z" fill="#010101"/>
<path fill-rule="evenodd" clip-rule="evenodd" d="M349.221 74.2438H347.659C347.192 75.9186 346.426 77.1902 345.359 78.0584C344.289 78.9216 342.957 79.3544 341.362 79.357C339.575 79.3544 338.151 78.8291 337.09 77.781C336.031 76.7355 335.502 75.3291 335.502 73.5617C335.502 72.4469 335.735 71.3282 336.202 70.2056C336.665 69.083 337.334 68.0195 338.208 67.0151C339.113 65.9542 340.095 65.145 341.153 64.5876C342.209 64.0302 343.278 63.7515 344.362 63.7515C344.959 63.7515 345.535 63.8375 346.088 64.0096C346.641 64.1817 347.181 64.4438 347.709 64.7957L348.647 64.0905H349.171L348.153 68.1287H347.587C347.537 66.8649 347.245 65.9144 346.712 65.2773C346.176 64.6377 345.401 64.3179 344.387 64.3179C343.711 64.3179 343.072 64.49 342.468 64.8342C341.871 65.1784 341.326 65.6896 340.835 66.3678C340.48 66.8636 340.141 67.457 339.817 68.148C339.493 68.8364 339.186 69.6122 338.895 70.4753C338.605 71.3513 338.384 72.1861 338.233 72.9799C338.085 73.7737 338.011 74.5058 338.011 75.1762C338.011 76.3682 338.281 77.2673 338.82 77.8735C339.356 78.4797 340.153 78.7841 341.212 78.7867C342.271 78.7867 343.093 78.4091 343.7 77.6731C344.316 76.9295 344.718 75.7927 344.932 74.2438H342.988V73.6966H349.221V74.2438ZM350.507 75.9816C350.504 75.3599 350.626 74.7511 350.872 74.1551C351.117 73.5566 351.492 72.9632 351.994 72.375C352.656 71.5889 353.345 71.0122 354.06 70.6449C354.772 70.2775 355.561 70.0939 356.426 70.0939C357.482 70.0939 358.344 70.4188 359.011 71.0687C359.673 71.7161 360.004 72.5561 360.004 73.5887C360.004 74.177 359.877 74.7781 359.623 75.392C359.368 76.0085 358.998 76.5994 358.512 77.1645C357.934 77.8247 357.266 78.3372 356.506 78.7019C355.752 79.0641 354.96 79.2452 354.131 79.2452C353.086 79.2452 352.22 78.9293 351.533 78.2973C350.849 77.6654 350.507 76.8935 350.507 75.9816ZM356.363 70.5254C355.805 70.5254 355.327 70.6384 354.931 70.8645C354.531 71.0828 354.198 71.4181 353.93 71.8702C353.779 72.1373 353.631 72.4482 353.486 72.8027C353.34 73.1597 353.18 73.6465 353.004 74.263C352.806 74.895 352.662 75.4318 352.572 75.8737C352.489 76.3206 352.445 76.7021 352.443 77.0181C352.443 77.5884 352.593 78.0161 352.895 78.3012C353.202 78.5889 353.648 78.7328 354.231 78.7328C354.814 78.7328 355.308 78.594 355.752 78.3205C356.199 78.043 356.544 77.6551 356.787 77.1568C357.175 76.3605 357.478 75.5269 357.696 74.6561C357.913 73.7955 358.021 72.9979 358.018 72.2632C358.018 71.6904 357.879 71.2575 357.599 70.9647C357.323 70.6744 356.911 70.528 356.363 70.5254ZM368.336 78.9678V78.4014H369.773L373.689 64.6685H371.926V64.0713H378.201C379.745 64.0713 380.902 64.3372 381.67 64.8689C382.438 65.4058 382.822 66.2111 382.822 67.2849C382.822 68.3561 382.383 69.2217 381.506 69.8819C380.638 70.5395 379.371 70.966 377.707 71.1612V71.3307C378.966 71.5465 379.921 71.9524 380.572 72.5483C381.228 73.1469 381.557 73.9098 381.557 74.8372C381.557 76.1216 381.004 77.1311 379.898 77.8658C378.792 78.6005 377.271 78.9678 375.336 78.9678C375.336 78.9678 368.34 78.9678 368.336 78.9678ZM372.169 78.4014H374.787C375.48 78.4014 376.056 78.3346 376.517 78.201C376.986 78.0674 377.372 77.8594 377.673 77.5768C378.078 77.2043 378.412 76.6918 378.674 76.0394C378.937 75.3843 379.068 74.7344 379.068 74.0896C379.065 73.1186 378.761 72.4302 378.155 72.0243C377.546 71.6184 376.495 71.4155 375.001 71.4155H374.154L372.165 78.3975L372.169 78.4014ZM374.339 70.8491H376.303C377.663 70.8516 378.693 70.5061 379.391 69.8126C380.086 69.1113 380.432 68.0889 380.43 66.7454C380.43 65.9183 380.256 65.3647 379.91 65.0847C379.558 64.8072 378.774 64.6698 377.556 64.6724H376.044L374.335 70.8529L374.339 70.8491ZM387.065 74.6599C386.951 75.0709 386.86 75.4447 386.793 75.7812C386.734 76.11 386.705 76.4054 386.705 76.6674C386.705 77.3302 386.878 77.8337 387.224 78.1779C387.579 78.5247 388.091 78.6981 388.762 78.6981C389.382 78.6981 389.971 78.5028 390.529 78.1124C391.085 77.7245 391.553 77.1812 391.933 76.4825L392.461 76.7483C392.039 77.5421 391.489 78.1599 390.81 78.6017C390.136 79.0487 389.386 79.2645 388.582 79.2645C387.504 79.2645 386.617 78.928 385.922 78.255C385.232 77.5819 384.888 76.7098 384.891 75.6386C384.891 75.035 385.011 74.4454 385.251 73.87C385.491 73.2895 385.852 72.7384 386.332 72.217C386.972 71.5105 387.668 70.9762 388.422 70.614C389.182 70.2493 389.983 70.0669 390.827 70.0669C391.519 70.0669 392.079 70.2326 392.507 70.5639C392.934 70.8979 393.148 71.332 393.148 71.8663C393.148 72.714 392.624 73.3896 391.577 73.8931C390.527 74.3992 389.101 74.6522 387.3 74.6522H387.065V74.6599ZM387.513 74.1089C388.709 74.1089 389.646 73.888 390.324 73.4461C391.003 73.0017 391.341 72.3968 391.338 71.6313C391.338 71.2819 391.244 71.0225 391.057 70.8529C390.867 70.6808 390.588 70.5948 390.22 70.5948C389.678 70.5948 389.158 70.8889 388.661 71.4772C388.171 72.0667 387.702 72.9491 387.275 74.1089H387.513ZM399.737 79.3184C399.737 79.3184 399.737 79.3197 399.737 79.3223C399.737 79.3249 399.737 79.3287 399.737 79.3339V79.3184ZM399.461 77.0296C398.966 72.9658 398.433 70.9339 397.86 70.9339C397.581 70.9364 397.282 71.1561 396.964 71.5928C396.648 72.0269 396.301 72.705 395.921 73.6272L395.447 73.4423C395.855 72.3274 396.319 71.4913 396.838 70.9339C397.36 70.3713 397.93 70.09 398.547 70.09C399.67 70.09 400.465 71.7944 400.931 75.2032C401.012 75.7812 401.078 76.2295 401.128 76.548L403.557 71.7392C403.856 71.1304 404.124 70.7052 404.362 70.4638C404.605 70.2274 404.876 70.1093 405.174 70.1093C405.476 70.1067 405.713 70.1709 405.887 70.3019C406.057 70.4304 406.142 70.6102 406.142 70.8414C406.142 71.0572 406.064 71.2318 405.908 71.3654C405.754 71.4964 405.556 71.5632 405.313 71.5658C405.145 71.5632 404.997 71.5195 404.869 71.4348C404.743 71.3423 404.67 71.2973 404.651 71.2999C404.545 71.2999 404.447 71.3474 404.358 71.4425C404.265 71.5427 404.166 71.6981 404.06 71.9087L400.114 79.8271C399.475 81.1166 398.767 82.1082 397.99 82.8017C397.217 83.4928 396.433 83.8383 395.64 83.8383C395.274 83.8357 394.992 83.765 394.794 83.6263C394.587 83.4748 394.484 83.2744 394.484 83.0252C394.484 82.7735 394.562 82.577 394.719 82.4357C394.875 82.2893 395.089 82.2161 395.359 82.2161C395.661 82.2161 395.919 82.3265 396.134 82.5474C396.347 82.7683 396.521 82.8788 396.658 82.8788C397.046 82.8788 397.529 82.5513 398.107 81.8962C398.686 81.2463 399.229 80.3883 399.737 79.3223C399.67 78.7674 399.578 78.0032 399.461 77.0296ZM407.445 75.9816C407.445 75.3599 407.568 74.7511 407.814 74.1551C408.059 73.5566 408.434 72.9632 408.936 72.375C409.601 71.5889 410.289 71.0122 411.001 70.6449C411.716 70.2775 412.505 70.0939 413.368 70.0939C414.427 70.0939 415.29 70.4188 415.957 71.0687C416.616 71.7161 416.944 72.5561 416.942 73.5887C416.944 74.177 416.819 74.7781 416.565 75.392C416.31 76.0085 415.939 76.5994 415.45 77.1645C414.872 77.8247 414.205 78.3372 413.448 78.7019C412.694 79.0641 411.901 79.2452 411.068 79.2452C410.021 79.2452 409.158 78.9293 408.48 78.2973C407.795 77.6654 407.451 76.8935 407.445 75.9816ZM413.301 70.5254C412.743 70.5254 412.265 70.6384 411.869 70.8645C411.469 71.0828 411.137 71.4181 410.872 71.8702C410.721 72.1373 410.571 72.4482 410.423 72.8027C410.275 73.1597 410.113 73.6465 409.937 74.263C409.742 74.895 409.6 75.4318 409.51 75.8737C409.421 76.3206 409.376 76.7021 409.376 77.0181C409.376 77.5884 409.53 78.0161 409.837 78.3012C410.136 78.5889 410.578 78.7328 411.165 78.7328C411.747 78.7328 412.241 78.594 412.69 78.3205C413.136 78.043 413.481 77.6551 413.724 77.1568C414.11 76.3605 414.413 75.5269 414.633 74.6561C414.851 73.7955 414.96 72.9979 414.96 72.2632C414.96 71.6904 414.82 71.2575 414.541 70.9647C414.265 70.6744 413.851 70.528 413.301 70.5254ZM421.466 78.9678H419.643L421.985 70.8683H420.138V70.2981C420.987 70.2981 421.716 70.2801 422.324 70.2441C422.925 70.2056 423.481 70.1478 423.992 70.0707L423.368 72.2825C423.907 71.5478 424.482 70.9955 425.093 70.6256C425.708 70.2531 426.354 70.0682 427.033 70.0707C427.712 70.0707 428.286 70.221 428.704 70.5177C429.115 70.8157 429.32 71.2203 429.32 71.7315C429.317 71.8573 429.301 72.0089 429.27 72.1861C429.239 72.366 429.199 72.5432 429.148 72.7179L427.557 77.6962C427.532 77.781 427.515 77.8491 427.506 77.9005C427.49 77.9518 427.481 77.9891 427.481 78.0122C427.481 78.1355 427.527 78.2344 427.619 78.3089C427.714 78.3834 427.833 78.4206 427.976 78.4206C428.406 78.4206 428.82 78.2062 429.22 77.7772C429.622 77.3482 430.025 76.6893 430.43 75.8005L430.899 75.9893C430.444 77.1221 429.928 77.9467 429.35 78.463C428.777 78.9845 428.104 79.2452 427.33 79.2452C426.84 79.2452 426.447 79.1296 426.17 78.9139C425.885 78.6955 425.741 78.4027 425.739 78.0353C425.741 77.912 425.758 77.7669 425.789 77.5999C425.82 77.4278 425.86 77.257 425.91 77.0874L427.376 72.4559C427.424 72.2735 427.46 72.1155 427.485 71.9819C427.513 71.8509 427.526 71.7495 427.523 71.6775C427.523 71.3616 427.437 71.1278 427.263 70.9762C427.096 70.8272 426.836 70.7527 426.484 70.7527C425.764 70.7527 425.042 71.106 424.318 71.8124C423.592 72.5214 423.074 73.4076 422.764 74.4711L421.457 78.9639L421.466 78.9678ZM439.16 77.7078C438.755 78.2113 438.299 78.594 437.79 78.8561C437.282 79.1155 436.738 79.2452 436.157 79.2452C435.272 79.2427 434.52 78.9344 433.903 78.3205C433.291 77.7014 432.984 76.9359 432.981 76.0239C432.981 75.3869 433.132 74.7344 433.434 74.0665C433.733 73.3961 434.167 72.75 434.737 72.1283C435.348 71.4579 435.995 70.9467 436.676 70.5948C437.355 70.2454 438.039 70.0707 438.729 70.0707C439.273 70.0707 439.713 70.1606 440.048 70.3405C440.392 70.5228 440.654 70.8067 440.836 71.192L442.851 64.6339H440.865V64.0674C441.577 64.0674 442.26 64.0443 442.939 64.0096C443.609 63.9711 444.251 63.9223 444.866 63.8632L440.744 77.3533C440.744 77.3533 440.723 77.3841 440.719 77.4072C440.657 77.5845 440.625 77.7335 440.622 77.8542C440.625 78.0058 440.681 78.1355 440.79 78.2434C440.904 78.3461 441.055 78.3988 441.242 78.4014C441.644 78.3988 442.07 78.1471 442.52 77.6461C442.972 77.1452 443.373 76.4684 443.722 75.6155L444.288 75.8197C443.838 76.9346 443.313 77.7836 442.713 78.3667C442.112 78.9498 441.456 79.2427 440.744 79.2452C440.236 79.2452 439.843 79.1232 439.567 78.8792C439.294 78.6287 439.16 78.2896 439.16 77.835C439.16 77.835 439.16 77.7117 439.16 77.7078ZM438.855 70.5254C438.357 70.5254 437.901 70.6693 437.485 70.957C437.074 71.2498 436.694 71.6929 436.345 72.2863C436.199 72.5599 436.039 72.8913 435.884 73.2612C435.736 73.6362 435.595 74.0447 435.461 74.4865C435.269 75.1005 435.125 75.6155 435.03 76.0317C434.938 76.4478 434.892 76.7805 434.892 77.0296C434.889 77.5665 435.023 77.9737 435.294 78.2511C435.559 78.5285 435.954 78.6685 436.479 78.6711C437.085 78.666 437.631 78.4617 438.117 78.0584C438.609 77.6474 439.021 77.045 439.353 76.2513C439.657 75.5423 439.912 74.7652 440.115 73.9201C440.317 73.075 440.417 72.4405 440.417 72.0166C440.417 71.5337 440.286 71.1638 440.023 70.9069C439.761 70.6551 439.371 70.528 438.855 70.5254Z" fill="#DF2047"/>
</g>
<defs>
<clipPath id="clip0_49_1879">
<rect width="452" height="84" fill="white"/>
</clipPath>
</defs>
</svg>
