<svg width="124" height="174" viewBox="0 0 124 174" fill="none" xmlns="http://www.w3.org/2000/svg">
<path d="M34.9985 118.185L41.0197 112.192L47.041 106.198L49.4871 103.763L50.8043 102.452C47.4173 101.516 44.0303 100.205 40.8315 98.3315C37.8209 96.6459 34.8103 94.3983 32.176 91.7761C29.5417 89.1539 27.2838 86.3445 25.5903 83.1604C23.7087 79.9763 22.3915 76.6049 21.4507 73.2336C20.5099 69.6749 20.1335 66.1163 20.1335 62.5576C20.1335 58.9989 20.5099 55.253 21.4507 51.8816C22.3915 48.5102 23.7087 45.1389 25.5903 41.9548C27.2838 38.958 29.5417 35.9613 32.176 33.3391C34.8103 30.7169 37.6327 28.4693 40.8315 26.7836C44.0303 24.9107 47.4173 23.5996 50.8043 22.6631C54.3794 21.7266 57.9544 21.352 61.5296 21.352C65.1047 21.352 68.868 21.7266 72.2549 22.6631C75.6419 23.5996 79.0288 24.9107 82.2276 26.7836C85.2382 28.4693 88.2488 30.7169 90.8831 33.3391C93.5174 35.9613 95.7754 38.7707 97.4689 41.9548C99.3505 45.1389 100.668 48.5102 101.609 51.8816C102.549 55.4403 102.926 58.9989 102.926 62.5576C102.926 66.1163 102.549 69.8622 101.609 73.2336C100.668 76.7922 99.3505 79.9763 97.4689 83.1604C95.7754 86.1572 93.5174 89.1539 90.8831 91.7761L82.2276 100.392L78.6525 103.95L76.2064 106.385L61.5296 120.995L58.1426 124.366L7.52656 174H37.0683L61.7177 150.213L66.7982 145.156L76.3946 135.604L103.49 108.446V108.258C104.243 107.696 104.807 107.135 105.372 106.573C105.56 106.385 105.748 106.198 105.936 106.011C106.124 105.823 106.124 105.823 106.313 105.636C107.065 104.887 107.818 104.138 108.382 103.389C112.522 98.8934 115.721 94.0237 118.167 88.7793C119.108 86.7191 120.049 84.8461 120.613 82.7858C122.683 77.1669 123.812 71.3606 124 65.5544C124 64.6179 124 63.6814 124 62.7449C124 62.5576 124 62.183 124 61.9957C124 61.4338 124 61.0592 124 60.4973C124 59.9354 124 59.1862 124 58.437C123.624 52.6308 122.495 46.8245 120.613 41.2056C119.86 39.1453 119.108 37.085 118.167 35.2121C115.721 29.9677 112.334 25.098 108.382 20.6028C107.63 19.6663 106.877 18.9171 105.936 18.1679C105.184 17.4187 104.243 16.4822 103.49 15.733C98.9742 11.7998 94.0819 8.42842 88.8133 5.99354C86.7435 5.05705 84.8619 4.12056 82.6039 3.55866C76.959 1.49838 71.1259 0.374597 65.2928 0.187299C64.1639 0.187299 63.0349 0 61.9059 0C60.7769 0 59.648 7.11695e-07 58.519 0.187299C52.6859 0.561895 46.8528 1.68568 41.2079 3.55866C39.1381 4.30786 37.0683 5.05705 35.1866 5.99354C29.918 8.42842 25.0258 11.7998 20.5099 15.733C19.569 16.4822 18.8164 17.2314 18.0637 18.1679C17.3111 18.9171 16.3702 19.8536 15.6176 20.6028C11.6661 25.098 8.27922 29.9677 5.83309 35.2121C4.89227 37.2723 3.95142 39.1453 3.38693 41.2056C1.31712 46.8245 0.188164 52.6308 0 58.437C0 59.5608 0 60.6846 0 61.8084C0 62.9322 0 64.056 0 65.3671C0.376328 71.1733 1.50529 76.9795 3.38693 82.5985C4.13958 84.6588 4.89227 86.7191 5.83309 88.592C8.27922 93.8364 11.6661 98.7061 15.6176 103.201C16.1821 103.763 16.7466 104.512 17.311 105.074C17.4992 105.262 17.6874 105.449 17.8756 105.636C18.6282 106.385 19.569 107.322 20.3217 108.071C25.9666 112.941 34.9985 118.185 34.9985 118.185Z" fill="#EFEFEF"/>
<path d="M76.5828 47.3866C72.4432 43.266 67.1746 41.3931 61.906 41.3931C56.6375 41.3931 51.1807 43.4533 47.2293 47.3866C43.0897 51.5072 41.208 56.7515 41.208 61.9959C41.208 67.2402 43.2778 72.6719 47.2293 76.6051C51.3689 80.7257 56.6375 82.5987 61.906 82.5987C67.1746 82.5987 72.6314 80.5384 76.5828 76.6051C80.7224 72.4846 82.6041 67.2402 82.6041 61.9959C82.7922 56.7515 80.7224 51.3199 76.5828 47.3866Z" fill="#EFEFEF"/>
</svg>
