<svg width="200" height="281" viewBox="0 0 200 281" fill="none" xmlns="http://www.w3.org/2000/svg">
<path d="M56.4492 190.862L66.1608 181.183L75.8725 171.504L79.8179 167.572L81.9423 165.454C76.4795 163.942 71.0166 161.825 65.8573 158.8C61.0015 156.077 56.1457 152.448 51.8968 148.213C47.648 143.978 44.0061 139.441 41.2747 134.299C38.2398 129.157 36.1153 123.713 34.5979 118.268C33.0804 112.521 32.4734 106.774 32.4734 101.027C32.4734 95.2799 33.0804 89.2304 34.5979 83.7858C36.1153 78.3412 38.2398 72.8967 41.2747 67.7546C44.0061 62.915 47.648 58.0754 51.8968 53.8407C56.1457 49.606 60.698 45.9763 65.8573 43.254C71.0166 40.2293 76.4795 38.1119 81.9423 36.5996C87.7087 35.0872 93.4749 34.4822 99.2412 34.4822C105.008 34.4822 111.077 35.0872 116.54 36.5996C122.003 38.1119 127.466 40.2293 132.625 43.254C137.481 45.9763 142.337 49.606 146.586 53.8407C150.835 58.0754 154.476 62.6125 157.208 67.7546C160.243 72.8967 162.367 78.3412 163.885 83.7858C165.402 89.5328 166.009 95.2799 166.009 101.027C166.009 106.774 165.402 112.823 163.885 118.268C162.367 124.015 160.243 129.157 157.208 134.299C154.476 139.139 150.835 143.978 146.586 148.213L132.625 162.127L126.859 167.874L122.914 171.806L99.2412 195.399L93.7784 200.844L12.1396 281H59.7875L99.5447 242.586L107.739 234.419L123.217 218.992L166.92 175.133V174.831C168.134 173.924 169.044 173.016 169.954 172.109C170.258 171.806 170.561 171.504 170.865 171.201C171.168 170.899 171.168 170.899 171.472 170.596C172.686 169.386 173.9 168.177 174.81 166.967C181.487 159.707 186.646 151.843 190.592 143.374C192.109 140.046 193.627 137.022 194.537 133.694C197.876 124.62 199.697 115.243 200 105.867C200 104.354 200 102.842 200 101.329C200 101.027 200 100.422 200 100.119C200 99.2121 200 98.6071 200 97.6997C200 96.7923 200 95.5823 200 94.3724C199.393 84.9957 197.572 75.6189 194.537 66.5447C193.323 63.2174 192.109 59.8902 190.592 56.8655C186.646 48.3961 181.184 40.5317 174.81 33.2723C173.596 31.76 172.382 30.5501 170.865 29.3401C169.651 28.1302 168.134 26.6179 166.92 25.408C159.636 19.056 151.745 13.6114 143.247 9.67922C139.909 8.16684 136.874 6.65447 133.232 5.74704C124.127 2.41981 114.719 0.604953 105.311 0.302477C103.49 0.302477 101.669 0 99.8482 0C98.0273 0 96.2064 1.14935e-06 94.3855 0.302477C84.9773 0.907429 75.569 2.72228 66.4643 5.74704C63.1259 6.95694 59.7875 8.16684 56.7526 9.67922C48.2549 13.6114 40.3642 19.056 33.0804 25.408C31.563 26.6179 30.349 27.8278 29.1351 29.3401C27.9211 30.5501 26.4036 32.0624 25.1896 33.2723C18.8164 40.5317 13.3536 48.3961 9.40821 56.8655C7.89076 60.1927 6.37326 63.2174 5.46279 66.5447C2.12439 75.6189 0.30349 84.9957 0 94.3724C0 96.1873 0 98.0022 0 99.817C0 101.632 0 103.447 0 105.564C0.60698 114.941 2.42788 124.318 5.46279 133.392C6.67675 136.719 7.89076 140.046 9.40821 143.071C13.3536 151.54 18.8164 159.405 25.1896 166.664C26.1001 167.572 27.0106 168.781 27.921 169.689C28.2245 169.991 28.5281 170.294 28.8316 170.596C30.0455 171.806 31.5629 173.319 32.7769 174.529C41.8816 182.393 56.4492 190.862 56.4492 190.862Z" fill="#EA1D3C" fill-opacity="0.1"/>
</svg>
